# xmcd CD database file generated by Grip 3.2.0
# 
# Track frame offsets:
#       150
#       17925
#       32645
#       49955
#       64400
#       80225
#       88742
#       107102
#       118897
#       127152
#       140880
#       153132
#       165195
#       175710
#       188055
#       198592
#       216002
#       228784
#       247585
#       260767
# 
# Disc length: 3713 seconds
# 
# Revision: 5
# Processed by: cddbd v1.5.2PL0 Copyright (c) Steve Scherf et al.
# Submitted via: Grip 3.2.0
# 
DISCID=1e0e7f14
DTITLE=Various Artist - Country Christmas
DYEAR=1998
DGENRE=Country
TTITLE0=June Carter and The Carter Family - It Came Upon A Midnight Clear
TTITLE1=Johnny Cash - O Come All Ye Faithful
TTITLE2=Glen Campbell - Do You Hear What I Hear
TTITLE3=Connie Smith - O Holy Night
TTITLE4=Roy Clark - Silent Night
TTITLE5=Gene Autry - Santa´s Comin´ in a Whirlybird
TTITLE6=Dave Dudley - Reverend Nicholas
TTITLE7=Faron Young - Winter Wonderland
TTITLE8=Glen Campbell - Jingle Bell Rock
TTITLE9=Johnny Cash - Blue Christmas
TTITLE10=Johnny Cash - Here Was A Man
TTITLE11=Johnny Cash - Joy To The World
TTITLE12=Glen Campbell - Let It Snow! Let It Snow! Let It Snow!
TTITLE13=Glen Campbell - White Christmas
TTITLE14=Dave Dudley - All I Want For Christmas Is You For Me
TTITLE15=Janie Fricke - Angels We Have Heard On High
TTITLE16=Glen Campbell - Sleigh Ride
TTITLE17=Johnny Cash - The first Noel
TTITLE18=Dave Dudley - Old Time Merry Christmas
TTITLE19=Kitty Wells - Silent Night
EXTD=
EXTT0=
EXTT1=
EXTT2=
EXTT3=
EXTT4=
EXTT5=
EXTT6=
EXTT7=
EXTT8=
EXTT9=
EXTT10=
EXTT11=
EXTT12=
EXTT13=
EXTT14=
EXTT15=
EXTT16=
EXTT17=
EXTT18=
EXTT19=
PLAYORDER=
